<svg width="319" height="269" viewBox="0 0 319 269" fill="none" xmlns="http://www.w3.org/2000/svg">
<g filter="url(#filter0_d)">
<path d="M7 27C7 15.9543 15.9543 7 27 7H276C287.046 7 296 15.9543 296 27V182C296 193.046 287.046 202 276 202H223.75H197.967C191.48 202 185.396 205.146 181.647 210.44L159.66 241.48C155.675 247.106 147.325 247.106 143.34 241.48L121.353 210.44C117.604 205.146 111.52 202 105.033 202H79.25H27C15.9543 202 7 193.046 7 182V27Z" fill="white"/>
</g>
<rect x="41" y="41" width="60" height="70" rx="9" fill="#FDF8EF"/>
<rect x="51" y="51" width="30" height="4" rx="2" fill="#F5CE88"/>
<rect x="51" y="59" width="18" height="4" rx="2" fill="#E1D3B8"/>
<path d="M52.0254 100.723H53.25V102H52.0254V100.723ZM55.3652 93.3926H59.2383C60.0039 93.3926 60.6211 93.6094 61.0898 94.043C61.5586 94.4727 61.793 95.0781 61.793 95.8594C61.793 96.5312 61.584 97.1172 61.166 97.6172C60.748 98.1133 60.1055 98.3613 59.2383 98.3613H56.5312V102H55.3652V93.3926ZM60.6152 95.8652C60.6152 95.2324 60.3809 94.8027 59.9121 94.5762C59.6543 94.4551 59.3008 94.3945 58.8516 94.3945H56.5312V97.377H58.8516C59.375 97.377 59.7988 97.2656 60.123 97.043C60.4512 96.8203 60.6152 96.4277 60.6152 95.8652ZM66.5625 101.004C66.957 101.004 67.2812 100.963 67.5352 100.881C67.9883 100.729 68.3594 100.436 68.6484 100.002C68.8789 99.6543 69.0449 99.209 69.1465 98.666C69.2051 98.3418 69.2344 98.041 69.2344 97.7637C69.2344 96.6973 69.0215 95.8691 68.5957 95.2793C68.1738 94.6895 67.4922 94.3945 66.5508 94.3945H64.4824V101.004H66.5625ZM63.3105 93.3926H66.7969C67.9805 93.3926 68.8984 93.8125 69.5508 94.6523C70.1328 95.4102 70.4238 96.3809 70.4238 97.5645C70.4238 98.4785 70.252 99.3047 69.9082 100.043C69.3027 101.348 68.2617 102 66.7852 102H63.3105V93.3926ZM72.041 93.3926H78.0117V94.4473H73.207V97.0605H77.4316V98.0859H73.207V102H72.041V93.3926Z" fill="#F5CE88"/>
<rect x="87" y="140" width="130" height="30" rx="9" fill="#EFF1FD"/>
<rect x="112" y="152" width="80" height="6" rx="3" fill="#4424A7"/>
<rect x="121" y="41" width="60" height="70" rx="9" fill="#FFECF2"/>
<rect x="131" y="51" width="30" height="4" rx="2" fill="#FFA2C0"/>
<rect x="131" y="59" width="18" height="4" rx="2" fill="#EFCAD6"/>
<path d="M132.025 100.723H133.25V102H132.025V100.723ZM138.881 93.1582C139.971 93.1582 140.816 93.4453 141.418 94.0195C142.02 94.5938 142.354 95.2461 142.42 95.9766H141.283C141.154 95.4219 140.896 94.9824 140.51 94.6582C140.127 94.334 139.588 94.1719 138.893 94.1719C138.045 94.1719 137.359 94.4707 136.836 95.0684C136.316 95.6621 136.057 96.5742 136.057 97.8047C136.057 98.8125 136.291 99.6309 136.76 100.26C137.232 100.885 137.936 101.197 138.869 101.197C139.729 101.197 140.383 100.867 140.832 100.207C141.07 99.8594 141.248 99.4023 141.365 98.8359H142.502C142.4 99.7422 142.064 100.502 141.494 101.115C140.811 101.854 139.889 102.223 138.729 102.223C137.729 102.223 136.889 101.92 136.209 101.314C135.314 100.514 134.867 99.2773 134.867 97.6055C134.867 96.3359 135.203 95.2949 135.875 94.4824C136.602 93.5996 137.604 93.1582 138.881 93.1582ZM144.688 99.2227C144.715 99.7109 144.83 100.107 145.033 100.412C145.42 100.982 146.102 101.268 147.078 101.268C147.516 101.268 147.914 101.205 148.273 101.08C148.969 100.838 149.316 100.404 149.316 99.7793C149.316 99.3105 149.17 98.9766 148.877 98.7773C148.58 98.582 148.115 98.4121 147.482 98.2676L146.316 98.0039C145.555 97.832 145.016 97.6426 144.699 97.4355C144.152 97.0762 143.879 96.5391 143.879 95.8242C143.879 95.0508 144.146 94.416 144.682 93.9199C145.217 93.4238 145.975 93.1758 146.955 93.1758C147.857 93.1758 148.623 93.3945 149.252 93.832C149.885 94.2656 150.201 94.9609 150.201 95.918H149.105C149.047 95.457 148.922 95.1035 148.73 94.8574C148.375 94.4082 147.771 94.1836 146.92 94.1836C146.232 94.1836 145.738 94.3281 145.438 94.6172C145.137 94.9062 144.986 95.2422 144.986 95.625C144.986 96.0469 145.162 96.3555 145.514 96.5508C145.744 96.6758 146.266 96.832 147.078 97.0195L148.285 97.2949C148.867 97.4277 149.316 97.6094 149.633 97.8398C150.18 98.2422 150.453 98.8262 150.453 99.5918C150.453 100.545 150.105 101.227 149.41 101.637C148.719 102.047 147.914 102.252 146.996 102.252C145.926 102.252 145.088 101.979 144.482 101.432C143.877 100.889 143.58 100.152 143.592 99.2227H144.688ZM152.609 93.3926L155.082 100.723L157.525 93.3926H158.832L155.691 102H154.455L151.32 93.3926H152.609Z" fill="#FFA2C0"/>
<rect x="201" y="41" width="60" height="70" rx="9" fill="#E5F7F8"/>
<rect x="211" y="51" width="30" height="4" rx="2" fill="#84D8DD"/>
<rect x="211" y="59" width="18" height="4" rx="2" fill="#C4DFE0"/>
<path d="M212.025 100.723H213.25V102H212.025V100.723ZM218.881 93.1582C219.971 93.1582 220.816 93.4453 221.418 94.0195C222.02 94.5938 222.354 95.2461 222.42 95.9766H221.283C221.154 95.4219 220.896 94.9824 220.51 94.6582C220.127 94.334 219.588 94.1719 218.893 94.1719C218.045 94.1719 217.359 94.4707 216.836 95.0684C216.316 95.6621 216.057 96.5742 216.057 97.8047C216.057 98.8125 216.291 99.6309 216.76 100.26C217.232 100.885 217.936 101.197 218.869 101.197C219.729 101.197 220.383 100.867 220.832 100.207C221.07 99.8594 221.248 99.4023 221.365 98.8359H222.502C222.4 99.7422 222.064 100.502 221.494 101.115C220.811 101.854 219.889 102.223 218.729 102.223C217.729 102.223 216.889 101.92 216.209 101.314C215.314 100.514 214.867 99.2773 214.867 97.6055C214.867 96.3359 215.203 95.2949 215.875 94.4824C216.602 93.5996 217.604 93.1582 218.881 93.1582ZM224.688 99.2227C224.715 99.7109 224.83 100.107 225.033 100.412C225.42 100.982 226.102 101.268 227.078 101.268C227.516 101.268 227.914 101.205 228.273 101.08C228.969 100.838 229.316 100.404 229.316 99.7793C229.316 99.3105 229.17 98.9766 228.877 98.7773C228.58 98.582 228.115 98.4121 227.482 98.2676L226.316 98.0039C225.555 97.832 225.016 97.6426 224.699 97.4355C224.152 97.0762 223.879 96.5391 223.879 95.8242C223.879 95.0508 224.146 94.416 224.682 93.9199C225.217 93.4238 225.975 93.1758 226.955 93.1758C227.857 93.1758 228.623 93.3945 229.252 93.832C229.885 94.2656 230.201 94.9609 230.201 95.918H229.105C229.047 95.457 228.922 95.1035 228.73 94.8574C228.375 94.4082 227.771 94.1836 226.92 94.1836C226.232 94.1836 225.738 94.3281 225.438 94.6172C225.137 94.9062 224.986 95.2422 224.986 95.625C224.986 96.0469 225.162 96.3555 225.514 96.5508C225.744 96.6758 226.266 96.832 227.078 97.0195L228.285 97.2949C228.867 97.4277 229.316 97.6094 229.633 97.8398C230.18 98.2422 230.453 98.8262 230.453 99.5918C230.453 100.545 230.105 101.227 229.41 101.637C228.719 102.047 227.914 102.252 226.996 102.252C225.926 102.252 225.088 101.979 224.482 101.432C223.877 100.889 223.58 100.152 223.592 99.2227H224.688ZM232.609 93.3926L235.082 100.723L237.525 93.3926H238.832L235.691 102H234.455L231.32 93.3926H232.609Z" fill="#7FD6DC"/>
<defs>
<filter id="filter0_d" x="0" y="0" width="319" height="268.699" filterUnits="userSpaceOnUse" color-interpolation-filters="sRGB">
<feFlood flood-opacity="0" result="BackgroundImageFix"/>
<feColorMatrix in="SourceAlpha" type="matrix" values="0 0 0 0 0 0 0 0 0 0 0 0 0 0 0 0 0 0 127 0"/>
<feOffset dx="8" dy="8"/>
<feGaussianBlur stdDeviation="7.5"/>
<feColorMatrix type="matrix" values="0 0 0 0 0.221008 0 0 0 0 0.117361 0 0 0 0 0.541667 0 0 0 0.25 0"/>
<feBlend mode="normal" in2="BackgroundImageFix" result="effect1_dropShadow"/>
<feBlend mode="normal" in="SourceGraphic" in2="effect1_dropShadow" result="shape"/>
</filter>
</defs>
</svg>
